Sprint_04500001_forces_filt12Hz.mot
version=1
nRows=19
nColumns=19
inDegrees=yes
endheader
time	R_ground_force_vx	R_ground_force_vy	R_ground_force_vz	R_ground_force_px	R_ground_force_py	R_ground_force_pz	R_ground_torque_x	R_ground_torque_y	R_ground_torque_z	L_ground_force_vx	L_ground_force_vy	L_ground_force_vz	L_ground_force_px	L_ground_force_py	L_ground_force_pz	L_ground_torque_x	L_ground_torque_y	L_ground_torque_z	
2.943000	  0.000000	  0.000000	  0.000000	  0.652020	  0.000000	 -0.231105	  0.000000	  0.000000	  0.000000	290.877112	1988.153882	 19.997714	  0.701457	  0.011500	 -0.331073	  0.000000	 -8.706498	  0.000000
2.943500	  0.000000	  0.000000	  0.000000	  0.653148	  0.000000	 -0.231338	  0.000000	  0.000000	  0.000000	294.754306	1973.528841	 20.226795	  0.699467	  0.011500	 -0.330965	  0.000000	 -9.626141	  0.000000
2.944000	  0.000000	  0.000000	  0.000000	  0.654275	  0.000000	 -0.231572	  0.000000	  0.000000	  0.000000	298.573616	1958.662545	 20.431893	  0.697449	  0.011500	 -0.330860	  0.000000	-10.522377	  0.000000
2.944500	  0.000000	  0.000000	  0.000000	  0.655403	  0.000000	 -0.231805	  0.000000	  0.000000	  0.000000	302.334387	1943.558105	 20.606838	  0.695406	  0.011500	 -0.330760	  0.000000	-11.390237	  0.000000
2.945000	  0.000000	  0.000000	  0.000000	  0.656531	  0.000000	 -0.232039	  0.000000	  0.000000	  0.000000	306.035882	1928.218998	 20.745327	  0.693334	  0.011500	 -0.330665	  0.000000	-12.224705	  0.000000
2.945500	  0.000000	  0.000000	  0.000000	  0.657721	  0.000000	 -0.232341	  0.000000	  0.000000	  0.000000	309.677279	1912.649042	 20.840961	  0.691236	  0.011500	 -0.330574	  0.000000	-13.020732	  0.000000
2.946000	  0.000000	  0.000000	  0.000000	  0.658912	  0.000000	 -0.232643	  0.000000	  0.000000	  0.000000	313.257660	1896.852361	 20.887278	  0.689108	  0.011500	 -0.330488	  0.000000	-13.773247	  0.000000
2.946500	  0.000000	  0.000000	  0.000000	  0.660102	  0.000000	 -0.232946	  0.000000	  0.000000	  0.000000	316.776011	1880.833342	 20.877788	  0.686953	  0.011500	 -0.330408	  0.000000	-14.477180	  0.000000
2.947000	  0.000000	  0.000000	  0.000000	  0.661292	  0.000000	 -0.233248	  0.000000	  0.000000	  0.000000	320.231217	1864.596562	 20.806022	  0.684768	  0.011500	 -0.330333	  0.000000	-15.127487	  0.000000
2.947500	  0.000000	  0.000000	  0.000000	  0.662482	  0.000000	 -0.233550	  0.000000	  0.000000	  0.000000	323.622062	1848.146726	 20.665565	  0.682553	  0.011500	 -0.330265	  0.000000	-15.719185	  0.000000
2.948000	  0.000000	  0.000000	  0.000000	  0.663673	  0.000000	 -0.233852	  0.000000	  0.000000	  0.000000	326.947232	1831.488613	 20.450110	  0.680309	  0.011500	 -0.330202	  0.000000	-16.247386	  0.000000
2.948500	  0.000000	  0.000000	  0.000000	  0.664863	  0.000000	 -0.234154	  0.000000	  0.000000	  0.000000	330.205319	1814.627037	 20.153500	  0.678033	  0.011500	 -0.330146	  0.000000	-16.707344	  0.000000
2.949000	  0.000000	  0.000000	  0.000000	  0.666053	  0.000000	 -0.234457	  0.000000	  0.000000	  0.000000	333.394826	1797.566840	 19.769779	  0.675727	  0.011500	 -0.330096	  0.000000	-17.094505	  0.000000
2.949500	  0.000000	  0.000000	  0.000000	  0.667244	  0.000000	 -0.234759	  0.000000	  0.000000	  0.000000	336.514180	1780.312903	 19.293245	  0.673388	  0.011500	 -0.330054	  0.000000	-17.404549	  0.000000
2.950000	  0.000000	  0.000000	  0.000000	  0.668434	  0.000000	 -0.235061	  0.000000	  0.000000	  0.000000	339.561736	1762.870176	 18.718501	  0.671017	  0.011500	 -0.330018	  0.000000	-17.633442	  0.000000
2.950500	  0.000000	  0.000000	  0.000000	  0.669717	  0.000000	 -0.235395	  0.000000	  0.000000	  0.000000	342.535798	1745.243707	 18.040514	  0.668612	  0.011500	 -0.329990	  0.000000	-17.777482	  0.000000
2.951000	  0.000000	  0.000000	  0.000000	  0.671000	  0.000000	 -0.235729	  0.000000	  0.000000	  0.000000	345.434634	1727.438674	 17.254665	  0.666174	  0.011500	 -0.329968	  0.000000	-17.833345	  0.000000
2.951500	  0.000000	  0.000000	  0.000000	  0.672284	  0.000000	 -0.236063	  0.000000	  0.000000	  0.000000	348.256510	1709.460403	 16.356800	  0.663700	  0.011500	 -0.329954	  0.000000	-17.798133	  0.000000
2.952000	  0.000000	  0.000000	  0.000000	  0.673567	  0.000000	 -0.236397	  0.000000	  0.000000	  0.000000	350.999717	1691.314383	 15.343280	  0.661191	  0.011500	 -0.329947	  0.000000	-17.669421	  0.000000
